<?xml version="1.0" encoding="UTF-8" standalone="no"?>
<svg
   width="429"
   height="77.59449"
   viewBox="0 0 369.89474 66.903951"
   class="looka-1j8o68f"
   version="1.1"
   id="svg3"
   xmlns="http://www.w3.org/2000/svg"
   xmlns:svg="http://www.w3.org/2000/svg">
  <defs
     id="SvgjsDefs1190" />
  <g
     id="SvgjsG1191"
     featurekey="G09qjj-0"
     transform="matrix(1.2699065,0,0,1.2699065,-16.995104,-26.551389)"
     fill="#222831">
    <g
       id="g2">
      <path
         d="M 82.616,52.72 C 82.4,52.611 82.182,52.514 81.968,52.426 l -0.18,-0.074 C 81.709,52.319 81.63,52.297 81.551,52.268 L 43.462,36.297 43.502,36.202 C 43.203,36.077 42.894,35.991 42.58,35.927 L 22.708,27.594 c -1.528,-0.641 -3.272,-0.48 -4.912,0.453 -1.583,0.901 -2.885,2.424 -3.667,4.29 -0.782,1.865 -0.956,3.862 -0.49,5.622 0.483,1.824 1.591,3.181 3.119,3.822 l 16.45,6.898 0.005,-0.013 c 0.122,0.953 0.45,1.872 0.936,2.696 v 10.331 c 0,0.282 0.177,0.535 0.444,0.63 0.266,0.096 0.563,0.014 0.743,-0.204 l 2.416,-2.934 2.259,5.555 c 0.104,0.256 0.353,0.418 0.621,0.418 0.043,0 0.088,-0.005 0.132,-0.014 0.315,-0.063 0.542,-0.342 0.538,-0.663 L 41.194,53.643 c 0.379,-0.326 0.701,-0.735 0.948,-1.218 l 34.452,14.447 c 0.614,0.258 1.258,0.38 1.909,0.38 2.624,0 5.356,-1.989 6.67,-5.122 1.627,-3.881 0.477,-8.077 -2.557,-9.41 z m -42.55,-9.428 c -0.125,0.298 -0.232,0.602 -0.327,0.909 -0.562,-0.381 -1.176,-0.654 -1.821,-0.778 -0.847,-0.164 -1.642,-0.065 -2.333,0.238 0.088,-0.738 0.272,-1.479 0.574,-2.198 0.668,-1.594 1.767,-2.888 3.094,-3.644 0.98,-0.558 1.993,-0.762 2.926,-0.608 l 2.891,1.212 c -0.449,0.139 -0.897,0.329 -1.337,0.58 -1.583,0.901 -2.885,2.425 -3.667,4.289 z m -25.13,-5.677 c -0.392,-1.476 -0.239,-3.166 0.43,-4.76 0.668,-1.594 1.767,-2.888 3.093,-3.643 1.27,-0.723 2.594,-0.859 3.731,-0.382 l 17.486,7.333 c -0.365,0.13 -0.728,0.29 -1.086,0.494 -1.583,0.901 -2.884,2.424 -3.667,4.289 -0.515,1.227 -0.751,2.519 -0.727,3.771 -0.542,0.653 -0.902,1.508 -1.013,2.499 L 17.277,40.545 c -1.135,-0.477 -1.967,-1.517 -2.341,-2.93 z m 24.992,23.36 -1.358,-3.337 c -0.089,-0.218 -0.286,-0.374 -0.52,-0.41 -0.233,-0.034 -0.468,0.055 -0.618,0.236 l -1.943,2.359 V 53.02 c 0.716,0.652 1.542,1.145 2.436,1.359 0.69,0.166 1.344,0.148 1.937,-0.019 z M 37.925,53.012 C 36.982,52.791 36.129,52.167 35.49,51.34 v -0.269 h -0.192 c -0.583,-0.857 -0.947,-1.892 -0.947,-2.943 0,-2.232 1.601,-3.729 3.569,-3.337 1.968,0.392 3.571,2.583 3.574,4.885 0.003,2.302 -1.599,3.798 -3.569,3.336 z m 2.932,-7.805 c 0.106,-0.472 0.254,-0.941 0.445,-1.396 0.668,-1.594 1.767,-2.888 3.093,-3.644 1.271,-0.723 2.595,-0.858 3.73,-0.382 l 0.029,-0.068 29.653,12.435 c -1.9,0.611 -3.56,2.252 -4.591,4.736 -0.805,1.937 -1.052,3.925 -0.695,5.599 0.11,0.517 0.278,0.992 0.492,1.43 L 42.577,51.154 c 0.078,-0.383 0.123,-0.788 0.123,-1.217 -0.002,-1.78 -0.731,-3.491 -1.843,-4.73 z m 32.965,16.917 c -0.244,-1.237 -0.078,-2.691 0.438,-4.161 l 7.226,3.233 c -0.873,1.356 -1.918,2.151 -3.111,2.364 -1.985,0.355 -3.924,-0.957 -4.553,-1.436 z M 83.938,61.61 c -1.354,3.229 -4.417,5.036 -6.826,4.025 l -0.791,-0.332 0.008,-0.02 c -0.601,-0.249 -1.059,-0.586 -1.416,-0.961 0.794,0.354 1.744,0.639 2.767,0.639 0.302,0 0.611,-0.025 0.923,-0.08 1.791,-0.318 3.282,-1.553 4.431,-3.672 0.089,-0.164 0.105,-0.357 0.046,-0.534 -0.059,-0.177 -0.19,-0.32 -0.361,-0.396 l -7.95,-3.557 c 1.439,-2.861 3.824,-4.095 6.271,-3.216 l 0.967,0.405 c 0.086,0.044 0.176,0.087 0.249,0.137 l 0.007,-0.01 c 2.221,1.133 2.983,4.452 1.675,7.572 z"
         id="path1" />
      <path
         d="m 38.034,48.181 c -0.16,-0.045 -0.25,-0.146 -0.25,-0.285 0,-0.174 0.173,-0.177 0.34,-0.145 0.09,0.021 0.186,0.051 0.27,0.092 v 0.256 l 0.956,0.226 0.038,-0.88 c -0.36,-0.383 -0.873,-0.613 -1.315,-0.71 -0.75,-0.164 -1.468,0.035 -1.468,0.883 0.006,0.822 0.764,1.247 1.38,1.43 0.23,0.073 0.372,0.218 0.372,0.342 0.007,0.206 -0.173,0.226 -0.423,0.161 -0.122,-0.032 -0.25,-0.115 -0.328,-0.157 V 49.127 L 36.598,48.85 v 0.976 c 0.334,0.304 0.9,0.601 1.42,0.735 0.822,0.224 1.547,0.013 1.54,-0.873 -0.009,-0.974 -0.857,-1.325 -1.524,-1.507 z"
         id="path2" />
    </g>
  </g>
  <g
     id="SvgjsG1192"
     featurekey="0yvIkK-0"
     transform="matrix(3.5739295,0,0,3.5739295,105.06658,-20.871749)"
     fill="#222831">
    <path
       d="M 3.26,5.84 V 18.8 h 6.6 V 20 H 1.94 V 5.84 Z m 15.58,8.76 q 0,-1.26 -0.94,-2.13 -0.94,-0.87 -2.28,-0.87 -1.3,0 -2.24,0.87 -0.94,0.87 -1.1,2.13 z M 15.7,10.52 q 1.92,0 3.12,1.24 1.2,1.24 1.22,3.2 v 0.72 h -7.76 q 0.08,1.56 1.03,2.51 0.95,0.95 2.47,0.97 0.94,0 1.79,-0.45 0.85,-0.45 1.31,-1.19 l 0.88,0.74 q -1.3,1.98 -4,1.98 -2.12,-0.02 -3.39,-1.38 -1.27,-1.36 -1.29,-3.5 0,-2.08 1.31,-3.45 1.31,-1.37 3.31,-1.39 z m 7.8,6.92 q 0,0.76 0.61,1.24 0.61,0.48 1.51,0.48 1.62,0 2.41,-0.85 0.79,-0.85 0.79,-2.31 v -0.64 h -1.44 q -1.84,0 -2.86,0.56 -1.02,0.56 -1.02,1.52 z m 2.72,-6.92 q 1.86,0 2.76,0.86 0.9,0.86 0.92,2.4 v 2.74 q 0,2.24 0.18,3.48 H 28.96 Q 28.84,19.38 28.84,18.5 H 28.8 q -1,1.74 -3.22,1.74 -1.5,0 -2.38,-0.74 -0.88,-0.74 -0.9,-2 0,-1.54 1.33,-2.32 1.33,-0.78 3.71,-0.78 h 1.48 v -0.54 q 0,-1.14 -0.7,-1.7 -0.7,-0.56 -1.9,-0.56 -1.6,0 -2.82,1.04 l -0.7,-0.82 q 0.66,-0.64 1.63,-0.97 0.97,-0.33 1.89,-0.33 z m 11,0 q 0.34,0 0.7,0.1 l -0.14,1.18 q -0.22,-0.08 -0.48,-0.08 -1.46,0 -2.23,0.9 -0.77,0.9 -0.77,2.34 V 20 h -1.2 v -6.74 q 0,-0.2 -0.1,-2.5 h 1.2 q 0.04,1.38 0.08,1.62 1.04,-1.86 2.94,-1.86 z m 6.94,0 q 1.8,0 2.65,0.97 0.85,0.97 0.87,3.05 V 20 h -1.2 v -5.4 q 0,-1.54 -0.57,-2.27 -0.57,-0.73 -1.75,-0.73 -1.46,0 -2.32,1.01 -0.86,1.01 -0.88,2.81 V 20 h -1.2 v -6.74 q -0.02,-0.58 -0.1,-2.5 h 1.2 q 0.04,1.58 0.08,1.62 H 41 q 0.4,-0.84 1.27,-1.35 0.87,-0.51 1.89,-0.51 z m 8.12,-4.68 v 8.5 q 0,2.3 0.95,3.54 0.95,1.24 2.89,1.28 3.8,0 3.84,-5.02 v -8.3 h 1.32 v 8.64 q 0,2.78 -1.3,4.32 -1.3,1.54 -3.86,1.56 -2.52,0 -3.83,-1.53 -1.31,-1.53 -1.33,-4.25 V 5.84 Z m 13.1,9.54 q 0,1.58 1.12,2.66 1.12,1.08 2.74,1.12 1.62,0 2.63,-1.07 1.01,-1.07 1.03,-2.71 0,-1.6 -1,-2.68 -1,-1.08 -2.68,-1.1 -1.62,0 -2.72,1.1 -1.1,1.1 -1.12,2.68 z m 3.86,-4.86 q 2.12,0 3.48,1.37 1.36,1.37 1.38,3.49 0,2.12 -1.36,3.48 -1.36,1.36 -3.5,1.38 -1.18,0 -2.19,-0.5 -1.01,-0.5 -1.51,-1.36 H 65.5 v 6.18 h -1.2 v -13.8 h 1.2 v 1.62 h 0.04 q 0.48,-0.84 1.5,-1.35 1.02,-0.51 2.2,-0.51 z"
       id="path3" />
  </g>
  <path
     style="fill:#f9f9f9;stroke-width:0.281075"
     d="M 80.387461,58.218555 C 79.6918,57.943647 69.545219,53.700954 57.839503,48.790349 l -21.28312,-8.928372 -0.729412,0.798295 -0.72941,0.798296 0.130222,6.886338 c 0.07162,3.787486 0.06937,7.044443 -0.005,7.237683 -0.07438,0.193238 -0.356948,0.351344 -0.62793,0.351344 -0.368034,0 -0.868873,-0.924532 -1.979448,-3.653976 -0.817712,-2.009686 -1.582978,-3.653975 -1.700592,-3.653975 -0.117612,0 -0.9382,0.885385 -1.823532,1.967525 -2.59664,3.173865 -2.668256,3.031411 -2.677667,-5.326372 -0.0069,-6.108635 -0.05567,-6.756752 -0.632419,-8.400701 L 25.156216,35.085051 14.194289,30.486116 C 4.1961349,26.291518 3.1411794,25.785585 2.1952439,24.73165 0.73926091,23.109435 0.20107653,21.304886 0.32597256,18.463927 0.44642479,15.724049 1.5051507,13.161289 3.3380808,11.172794 5.1085349,9.252079 7.0653368,8.3056158 9.2754764,8.3010046 11.244843,8.2968918 8.8813169,7.3609513 39.772118,20.377522 c 5.531798,2.330955 43.766649,18.356816 46.633122,19.545935 2.704457,1.121911 4.097149,2.427653 4.911884,4.605212 1.957484,5.231861 -1.408204,12.25409 -6.625913,13.824389 -1.69644,0.510553 -2.755151,0.477468 -4.30375,-0.134503 z M 85.879695,56.3638 c 2.618572,-1.534585 4.363535,-4.607722 4.567055,-8.043263 0.104122,-1.757664 0.01975,-2.37333 -0.480018,-3.503168 -0.800189,-1.808968 -1.293244,-2.325367 -2.974006,-3.114819 -1.97818,-0.929148 -4.309217,-0.911538 -5.941223,0.04488 -1.177292,0.689938 -3.201942,2.988311 -3.185654,3.616337 0.0044,0.171009 2.312764,1.331441 5.12962,2.578736 4.001103,1.771682 5.139973,2.392587 5.205753,2.838156 0.105872,0.717121 -1.814683,3.187615 -3.091493,3.976731 -1.780183,1.100212 -3.971016,1.243864 -6.547052,0.429289 -0.501022,-0.158428 -0.517966,-0.126478 -0.161009,0.303629 0.428763,0.51663 1.688016,1.230188 2.827199,1.602043 1.158608,0.378197 3.347368,0.03533 4.650828,-0.728551 z M 75.89026,54.719166 c 0,-0.04976 -0.206796,-0.697381 -0.459547,-1.439161 -1.26959,-3.726049 0.995523,-10.014141 4.469779,-12.408367 0.724581,-0.499333 1.478396,-0.965302 1.675148,-1.035489 0.196753,-0.07019 0.294492,-0.192584 0.217196,-0.271999 -0.0773,-0.07942 -8.488467,-3.65175 -18.69149,-7.938519 -17.056924,-7.166413 -18.709412,-7.804789 -20.518478,-7.926539 -1.846326,-0.124257 -2.062208,-0.0748 -3.504592,0.802893 -2.566541,1.561742 -4.80902,5.417174 -3.950111,6.791313 1.329674,2.127297 1.808833,3.49734 1.873795,5.357656 l 0.06769,1.938186 19.199502,8.083064 c 18.482258,7.781101 19.621114,8.248166 19.621114,8.046962 z m 8.123412,-0.878939 c 0.787029,-0.406988 2.557443,-2.23263 2.557443,-2.637223 0,-0.238225 -9.239688,-4.398695 -9.393231,-4.229606 -0.215651,0.237489 -0.725474,3.155655 -0.725474,4.152529 0,1.230173 0.424339,1.708007 2.253654,2.537776 1.504577,0.68247 4.158525,0.770736 5.307608,0.176524 z M 33.729004,46.658456 V 42.44233 h -1.312378 c -0.938791,0 -1.737702,-0.240035 -2.806493,-0.843224 -0.821762,-0.463774 -1.559272,-0.843226 -1.638909,-0.843226 -0.07963,0 -0.144796,1.960498 -0.144796,4.356664 0,2.396164 0.107585,4.356662 0.239075,4.356662 0.131489,0 0.79418,-0.695661 1.472645,-1.545912 0.678464,-0.850252 1.442049,-1.545913 1.696858,-1.545913 0.31619,0 0.751078,0.713942 1.369699,2.248601 0.498525,1.236729 0.955435,2.248599 1.015355,2.248599 0.05992,0 0.108944,-1.897256 0.108944,-4.216125 z m 0.19716,-6.172273 c 1.392404,-0.848998 1.845222,-1.994345 1.725534,-4.364533 -0.08172,-1.618366 -0.253467,-2.250481 -0.860795,-3.168214 -1.646689,-2.488314 -4.096483,-3.45107 -6.111687,-2.401859 -2.793413,1.454381 -2.851231,6.293434 -0.105572,8.835802 1.820807,1.685995 3.742498,2.080495 5.35252,1.098804 z m -8.629411,-7.41223 c 0,-0.205687 0.31568,-0.996211 0.701511,-1.756719 0.385832,-0.760508 0.702041,-1.837255 0.702688,-2.392772 0.0015,-1.260331 0.846916,-3.76044 1.759627,-5.203458 0.87305,-1.380319 2.901697,-3.259779 4.082873,-3.782617 0.497461,-0.220199 0.904477,-0.473873 0.904477,-0.563719 0,-0.08985 -5.184353,-2.335679 -11.520786,-4.990737 C 13.881343,11.012622 10.087438,9.5573793 9.3490346,9.5592969 7.9215195,9.5630045 5.7066931,10.657539 4.4458912,11.98236 c -1.7282683,1.816023 -2.5640756,3.824664 -2.7068069,6.505089 -0.1435981,2.696706 0.3193919,4.285168 1.6091642,5.520848 0.5269889,0.504888 4.3673745,2.276246 11.0272055,5.086243 5.620236,2.371359 10.376716,4.320973 10.569956,4.332475 0.193239,0.0115 0.351343,-0.147375 0.351343,-0.353062 z m 8.432251,-3.590523 c 0,-0.746892 1.550709,-3.316074 2.758665,-4.570498 0.724307,-0.752171 1.938684,-1.661503 2.69861,-2.020738 l 1.381689,-0.653154 -1.662764,-0.776883 c -1.236995,-0.577954 -2.104572,-0.778985 -3.388178,-0.785095 -1.513237,-0.0072 -1.903184,0.112158 -3.171024,0.970633 -1.684403,1.140538 -3.248867,3.260856 -3.829484,5.190099 -0.623944,2.073213 -0.621622,2.076923 1.207167,1.928152 1.251813,-0.101834 1.837972,-0.0085 2.599944,0.413822 1.191008,0.660172 1.405375,0.706491 1.405375,0.303662 z"
     id="path4" />
  <path
     style="fill:#f9f9f9;stroke-width:0.281075"
     d="M 112.14894,25.296753 V 0 h 2.2486 2.2486 v 23.188691 23.18869 h 11.80515 11.80515 v 2.108063 2.108063 h -14.05375 -14.05375 z"
     id="path5" />
  <path
     style="fill:#f9f9f9;stroke-width:0.281075"
     d="m 159.22901,51.169343 c -5.47156,-0.664642 -9.80625,-3.602978 -12.28231,-8.325753 -1.55327,-2.962655 -2.02282,-5.047715 -2.02095,-8.974048 0.002,-3.024629 0.0887,-3.620875 0.84509,-5.774453 1.04185,-2.966375 2.46946,-5.156153 4.64508,-7.124973 4.73256,-4.282721 11.94591,-5.305565 17.85333,-2.531578 2.3017,1.080827 5.45597,4.271494 6.56439,6.64013 1.07519,2.297619 1.67036,5.094013 1.67661,7.87738 l 0.005,2.178331 h -13.86669 -13.86669 l 0.22159,1.616182 c 0.44751,3.263829 1.65224,5.668726 3.8868,7.758893 4.84787,4.53461 13.04774,4.224103 18.09607,-0.685249 1.83946,-1.788816 1.65903,-1.77919 3.53473,-0.188582 l 0.90999,0.77168 -0.5575,0.782935 c -1.033,1.450719 -3.33491,3.385884 -5.06853,4.261019 -2.85748,1.442446 -7.13046,2.136609 -10.57588,1.718086 z M 172.45823,30.00476 c -0.47853,-3.634799 -3.3938,-7.337428 -6.81592,-8.656777 -2.25324,-0.868699 -5.90482,-1.056226 -8.12737,-0.417381 -4.07192,1.170417 -7.40605,4.675663 -8.36746,8.796887 l -0.40893,1.752915 h 11.95697 11.95698 z"
     id="path7" />
  <path
     style="fill:#f9f9f9;stroke-width:0.281075"
     d="m 193.82374,51.125523 c -3.50896,-0.511723 -6.6624,-2.671011 -8.06869,-5.524972 -0.53963,-1.095114 -0.65619,-1.779918 -0.6572,-3.860908 -0.002,-3.155705 0.68287,-4.868974 2.698,-6.753891 3.00145,-2.807506 7.23778,-3.980284 15.38825,-4.260061 l 5.16674,-0.177356 -0.14861,-2.168261 c -0.25051,-3.654776 -1.49601,-5.618955 -4.42282,-6.974875 -1.868,-0.865391 -5.53691,-1.140219 -8.2304,-0.616515 -1.95474,0.380065 -4.82731,1.649588 -6.03838,2.668635 l -0.79798,0.671453 -1.03941,-1.281761 c -0.57168,-0.704969 -1.03941,-1.375789 -1.03941,-1.490712 0,-0.38023 1.94352,-1.699419 3.72581,-2.528938 4.88674,-2.274404 11.25712,-2.552415 15.38729,-0.67152 2.06278,0.939403 3.99352,2.887307 4.95775,5.001822 l 0.78318,1.717478 0.19624,8.994401 c 0.22232,10.189116 0.45775,15.652864 0.70191,16.289125 0.14073,0.366752 -0.13966,0.43484 -1.79069,0.43484 h -1.95756 l -0.18058,-1.727682 c -0.0993,-0.950224 -0.18058,-2.15182 -0.18058,-2.670212 0,-0.518393 -0.10504,-0.942532 -0.23343,-0.942532 -0.12838,0 -0.63484,0.558966 -1.12546,1.242144 -1.74105,2.42437 -4.30101,3.950909 -7.61789,4.542661 -2.38078,0.424744 -3.08699,0.436046 -5.47608,0.08764 z m 7.90635,-4.182903 c 1.97128,-0.692844 3.3097,-1.730753 4.5061,-3.494344 1.21149,-1.785851 1.75811,-3.695051 1.95782,-6.838253 l 0.16518,-2.599943 -4.7493,0.0049 c -6.69045,0.0069 -10.34539,0.918148 -12.724,3.172431 -3.59435,3.406485 -1.99261,8.799299 3.03868,10.230741 1.7342,0.493391 5.7438,0.249128 7.80552,-0.475512 z"
     id="path8" />
  <path
     style="fill:#f9f9f9;stroke-width:0.281075"
     d="m 223.45465,37.14563 c 0,-7.396333 -0.0824,-14.795633 -0.18325,-16.44289 l -0.18325,-2.995013 h 1.98401 1.98401 l 0.18707,2.740482 c 0.1029,1.507265 0.21003,2.836746 0.23808,2.954403 0.028,0.117657 0.64297,-0.602328 1.36648,-1.599966 2.39414,-3.301203 5.15928,-4.77467 8.98781,-4.789347 1.18481,-0.0046 2.24365,0.08088 2.35298,0.18981 0.10933,0.108938 0.11014,1.025832 0.002,2.037542 l -0.19698,1.839474 -1.03293,-0.165172 c -1.32344,-0.211626 -4.29223,0.325577 -5.85257,1.05902 -2.92164,1.373336 -4.92005,4.562113 -5.42463,8.655832 -0.16146,1.30997 -0.29357,6.3377 -0.29357,11.172733 v 8.790969 h -1.96752 -1.96753 z"
     id="path9" />
  <path
     style="fill:#f9f9f9;stroke-width:0.281075"
     d="m 247.34603,38.833246 c 0,-6.468144 -0.0831,-13.867444 -0.18468,-16.442889 l -0.18467,-4.68263 h 2.01166 2.01167 v 2.072928 c 0,2.261164 0.23066,3.829648 0.56318,3.829648 0.11652,0 0.36941,-0.380396 0.56198,-0.845326 0.49309,-1.190406 3.34926,-3.748682 5.11643,-4.582786 5.43734,-2.566417 12.74389,-1.175492 15.56862,2.963749 2.19908,3.222434 2.62574,6.453238 2.63606,19.961284 l 0.007,9.486283 h -2.09142 -2.09142 l -0.0906,-11.875421 c -0.0885,-11.602969 -0.10534,-11.912027 -0.73183,-13.471033 -1.40279,-3.490777 -3.9976,-4.918248 -8.47605,-4.662898 -5.01378,0.285873 -8.26782,3.006953 -10.00526,8.366574 -0.432,1.332614 -0.51724,2.932355 -0.61783,11.594345 l -0.11668,10.048433 h -1.9432 -1.94319 z"
     id="path10" />
  <path
     style="fill:#f9f9f9;stroke-width:0.281075"
     d="m 300.89082,51.296478 c -4.93733,-1.020325 -8.98359,-4.18003 -11.13192,-8.692884 -2.31731,-4.867845 -2.48925,-6.704302 -2.49534,-26.652586 L 287.25868,0 h 2.23143 2.23143 l 0.1084,17.637458 c 0.0941,15.318354 0.16982,17.868168 0.57557,19.39207 1.92182,7.217973 6.10654,10.560464 13.26359,10.594129 7.35054,0.03457 11.51952,-3.578811 13.2746,-11.505515 0.35854,-1.619349 0.45731,-4.989194 0.55814,-19.042834 L 319.62434,0 h 2.09852 2.09852 l -0.0923,18.340146 c -0.10342,20.550646 -0.0276,19.721417 -2.22456,24.332739 -1.97316,4.141585 -5.54466,7.104532 -10.08614,8.367533 -2.21527,0.616075 -8.0936,0.759052 -10.52758,0.25606 z"
     id="path11" />
  <path
     style="fill:#f9f9f9;stroke-width:0.281075"
     d="M 335.04145,42.301793 V 17.707727 h 1.96752 1.96753 v 2.951288 c 0,1.780142 0.11153,2.951288 0.28107,2.951288 0.15459,0 0.28107,-0.116291 0.28107,-0.258424 0,-0.142133 0.64258,-0.961513 1.42797,-1.820843 1.73605,-1.899522 4.85862,-3.557731 8.02689,-4.262604 4.13202,-0.919289 9.04416,-0.127934 12.71262,2.048035 3.47999,2.064164 6.53749,6.24644 7.47542,10.225394 0.54388,2.307292 0.54388,6.910221 0,9.217512 -1.06481,4.517269 -4.40089,8.65407 -8.59818,10.661916 -2.88138,1.378353 -4.91758,1.814263 -8.39634,1.797486 -4.7125,-0.02273 -9.45316,-2.094366 -11.76677,-5.141995 -0.51996,-0.684921 -1.05751,-1.287473 -1.19457,-1.339003 -0.14225,-0.05348 -0.24918,4.68098 -0.24918,11.032196 v 11.125885 h -1.96753 -1.96752 z m 20.73467,5.057203 c 4.91845,-1.159628 8.54783,-4.912995 9.59189,-9.919583 1.64055,-7.866939 -2.639,-15.180551 -9.7464,-16.656284 -2.28186,-0.473791 -6.27897,-0.197822 -8.304,0.573325 -9.27595,3.532364 -11.66193,16.054759 -4.31725,22.658257 3.47051,3.120291 8.33022,4.392408 12.77576,3.344285 z"
     id="path12" />
</svg>
